<mxfile host="app.diagrams.net" modified="2021-04-11T12:09:36.721Z" agent="5.0 (Windows NT 10.0; WOW64) AppleWebKit/537.36 (KHTML, like Gecko) Chrome/70.0.3538.25 Safari/537.36" etag="3KJwz0SjJIqDm2kWg4-5" version="14.5.10" type="github">
  <diagram id="kgpKYQtTHZ0yAKxKKP6v" name="Page-1">
    <mxGraphModel dx="1502" dy="638" grid="1" gridSize="10" guides="1" tooltips="1" connect="1" arrows="1" fold="1" page="1" pageScale="1" pageWidth="850" pageHeight="1100" math="0" shadow="0">
      <root>
        <mxCell id="0" />
        <mxCell id="1" parent="0" />
        <mxCell id="3nuBFxr9cyL0pnOWT2aG-1" value="用户" style="shape=umlLifeline;perimeter=lifelinePerimeter;container=1;collapsible=0;recursiveResize=0;rounded=0;shadow=0;strokeWidth=1;" parent="1" vertex="1">
          <mxGeometry x="120" y="80" width="100" height="300" as="geometry" />
        </mxCell>
        <mxCell id="3ra7hq1qONQhSIbURNaE-9" value="" style="points=[];perimeter=orthogonalPerimeter;rounded=0;shadow=0;strokeWidth=1;" vertex="1" parent="3nuBFxr9cyL0pnOWT2aG-1">
          <mxGeometry x="45" y="60" width="10" height="190" as="geometry" />
        </mxCell>
        <mxCell id="3nuBFxr9cyL0pnOWT2aG-5" value="服务器" style="shape=umlLifeline;perimeter=lifelinePerimeter;container=1;collapsible=0;recursiveResize=0;rounded=0;shadow=0;strokeWidth=1;" parent="1" vertex="1">
          <mxGeometry x="300" y="80" width="100" height="300" as="geometry" />
        </mxCell>
        <mxCell id="3nuBFxr9cyL0pnOWT2aG-6" value="" style="points=[];perimeter=orthogonalPerimeter;rounded=0;shadow=0;strokeWidth=1;" parent="3nuBFxr9cyL0pnOWT2aG-5" vertex="1">
          <mxGeometry x="45" y="60" width="10" height="180" as="geometry" />
        </mxCell>
        <mxCell id="3nuBFxr9cyL0pnOWT2aG-8" value="发起注册请求" style="verticalAlign=bottom;endArrow=block;shadow=0;strokeWidth=1;" parent="1" target="3nuBFxr9cyL0pnOWT2aG-5" edge="1">
          <mxGeometry relative="1" as="geometry">
            <mxPoint x="175" y="160" as="sourcePoint" />
          </mxGeometry>
        </mxCell>
        <mxCell id="3ra7hq1qONQhSIbURNaE-5" value="微信服务器" style="shape=umlLifeline;perimeter=lifelinePerimeter;container=1;collapsible=0;recursiveResize=0;rounded=0;shadow=0;strokeWidth=1;" vertex="1" parent="1">
          <mxGeometry x="480" y="80" width="100" height="300" as="geometry" />
        </mxCell>
        <mxCell id="3ra7hq1qONQhSIbURNaE-6" value="" style="points=[];perimeter=orthogonalPerimeter;rounded=0;shadow=0;strokeWidth=1;" vertex="1" parent="3ra7hq1qONQhSIbURNaE-5">
          <mxGeometry x="45" y="80" width="10" height="80" as="geometry" />
        </mxCell>
        <mxCell id="3ra7hq1qONQhSIbURNaE-8" value="" style="edgeStyle=orthogonalEdgeStyle;rounded=0;orthogonalLoop=1;jettySize=auto;html=1;" edge="1" parent="1" source="3nuBFxr9cyL0pnOWT2aG-6" target="3ra7hq1qONQhSIbURNaE-5">
          <mxGeometry relative="1" as="geometry">
            <mxPoint x="435" y="245" as="targetPoint" />
            <Array as="points">
              <mxPoint x="470" y="170" />
              <mxPoint x="470" y="170" />
            </Array>
          </mxGeometry>
        </mxCell>
        <mxCell id="3ra7hq1qONQhSIbURNaE-11" value="携带用户参数" style="text;html=1;align=center;verticalAlign=middle;resizable=0;points=[];autosize=1;strokeColor=none;" vertex="1" parent="1">
          <mxGeometry x="395" y="150" width="90" height="20" as="geometry" />
        </mxCell>
        <mxCell id="3ra7hq1qONQhSIbURNaE-27" value="" style="edgeStyle=orthogonalEdgeStyle;rounded=0;orthogonalLoop=1;jettySize=auto;html=1;" edge="1" parent="1" source="3ra7hq1qONQhSIbURNaE-6">
          <mxGeometry relative="1" as="geometry">
            <mxPoint x="355" y="230" as="targetPoint" />
            <Array as="points">
              <mxPoint x="355" y="230" />
            </Array>
          </mxGeometry>
        </mxCell>
        <mxCell id="3ra7hq1qONQhSIbURNaE-28" value="返回用户信息" style="text;html=1;align=center;verticalAlign=middle;resizable=0;points=[];autosize=1;strokeColor=none;" vertex="1" parent="1">
          <mxGeometry x="385" y="210" width="90" height="20" as="geometry" />
        </mxCell>
        <mxCell id="3ra7hq1qONQhSIbURNaE-33" value="" style="endArrow=classic;html=1;exitX=-0.06;exitY=0.937;exitDx=0;exitDy=0;exitPerimeter=0;" edge="1" parent="1" source="3nuBFxr9cyL0pnOWT2aG-6" target="3ra7hq1qONQhSIbURNaE-9">
          <mxGeometry width="50" height="50" relative="1" as="geometry">
            <mxPoint x="400" y="350" as="sourcePoint" />
            <mxPoint x="450" y="300" as="targetPoint" />
          </mxGeometry>
        </mxCell>
        <mxCell id="3ra7hq1qONQhSIbURNaE-34" value="注册成功" style="text;html=1;align=center;verticalAlign=middle;resizable=0;points=[];autosize=1;strokeColor=none;" vertex="1" parent="1">
          <mxGeometry x="230" y="290" width="60" height="20" as="geometry" />
        </mxCell>
        <mxCell id="3ra7hq1qONQhSIbURNaE-48" value="用户" style="shape=umlLifeline;perimeter=lifelinePerimeter;container=1;collapsible=0;recursiveResize=0;rounded=0;shadow=0;strokeWidth=1;" vertex="1" parent="1">
          <mxGeometry x="130" y="480" width="100" height="410" as="geometry" />
        </mxCell>
        <mxCell id="3ra7hq1qONQhSIbURNaE-49" value="" style="points=[];perimeter=orthogonalPerimeter;rounded=0;shadow=0;strokeWidth=1;" vertex="1" parent="3ra7hq1qONQhSIbURNaE-48">
          <mxGeometry x="45" y="60" width="10" height="270" as="geometry" />
        </mxCell>
        <mxCell id="3ra7hq1qONQhSIbURNaE-50" value="服务器" style="shape=umlLifeline;perimeter=lifelinePerimeter;container=1;collapsible=0;recursiveResize=0;rounded=0;shadow=0;strokeWidth=1;" vertex="1" parent="1">
          <mxGeometry x="310" y="480" width="100" height="410" as="geometry" />
        </mxCell>
        <mxCell id="3ra7hq1qONQhSIbURNaE-51" value="" style="points=[];perimeter=orthogonalPerimeter;rounded=0;shadow=0;strokeWidth=1;" vertex="1" parent="3ra7hq1qONQhSIbURNaE-50">
          <mxGeometry x="45" y="60" width="10" height="180" as="geometry" />
        </mxCell>
        <mxCell id="3ra7hq1qONQhSIbURNaE-52" value="下单心仪商品" style="verticalAlign=bottom;endArrow=block;shadow=0;strokeWidth=1;" edge="1" parent="1" target="3ra7hq1qONQhSIbURNaE-50">
          <mxGeometry relative="1" as="geometry">
            <mxPoint x="185" y="560" as="sourcePoint" />
          </mxGeometry>
        </mxCell>
        <mxCell id="3ra7hq1qONQhSIbURNaE-53" value="数据库" style="shape=umlLifeline;perimeter=lifelinePerimeter;container=1;collapsible=0;recursiveResize=0;rounded=0;shadow=0;strokeWidth=1;" vertex="1" parent="1">
          <mxGeometry x="490" y="480" width="100" height="410" as="geometry" />
        </mxCell>
        <mxCell id="3ra7hq1qONQhSIbURNaE-62" value="" style="points=[];perimeter=orthogonalPerimeter;rounded=0;shadow=0;strokeWidth=1;" vertex="1" parent="3ra7hq1qONQhSIbURNaE-53">
          <mxGeometry x="45" y="80" width="10" height="80" as="geometry" />
        </mxCell>
        <mxCell id="3ra7hq1qONQhSIbURNaE-63" value="" style="points=[];perimeter=orthogonalPerimeter;rounded=0;shadow=0;strokeWidth=1;" vertex="1" parent="3ra7hq1qONQhSIbURNaE-53">
          <mxGeometry x="45" y="280" width="10" height="80" as="geometry" />
        </mxCell>
        <mxCell id="3ra7hq1qONQhSIbURNaE-55" value="" style="edgeStyle=orthogonalEdgeStyle;rounded=0;orthogonalLoop=1;jettySize=auto;html=1;" edge="1" parent="1" source="3ra7hq1qONQhSIbURNaE-51" target="3ra7hq1qONQhSIbURNaE-53">
          <mxGeometry relative="1" as="geometry">
            <mxPoint x="445" y="645" as="targetPoint" />
            <Array as="points">
              <mxPoint x="480" y="570" />
              <mxPoint x="480" y="570" />
            </Array>
          </mxGeometry>
        </mxCell>
        <mxCell id="3ra7hq1qONQhSIbURNaE-56" value="提交订单信息" style="text;html=1;align=center;verticalAlign=middle;resizable=0;points=[];autosize=1;strokeColor=none;" vertex="1" parent="1">
          <mxGeometry x="405" y="550" width="90" height="20" as="geometry" />
        </mxCell>
        <mxCell id="3ra7hq1qONQhSIbURNaE-57" value="" style="edgeStyle=orthogonalEdgeStyle;rounded=0;orthogonalLoop=1;jettySize=auto;html=1;" edge="1" parent="1">
          <mxGeometry relative="1" as="geometry">
            <mxPoint x="365" y="630" as="targetPoint" />
            <Array as="points">
              <mxPoint x="365" y="630" />
            </Array>
            <mxPoint x="535" y="630" as="sourcePoint" />
          </mxGeometry>
        </mxCell>
        <mxCell id="3ra7hq1qONQhSIbURNaE-58" value="结果反馈" style="text;html=1;align=center;verticalAlign=middle;resizable=0;points=[];autosize=1;strokeColor=none;" vertex="1" parent="1">
          <mxGeometry x="425" y="610" width="60" height="20" as="geometry" />
        </mxCell>
        <mxCell id="3ra7hq1qONQhSIbURNaE-59" value="" style="endArrow=classic;html=1;exitX=-0.06;exitY=0.937;exitDx=0;exitDy=0;exitPerimeter=0;" edge="1" parent="1" source="3ra7hq1qONQhSIbURNaE-51" target="3ra7hq1qONQhSIbURNaE-49">
          <mxGeometry width="50" height="50" relative="1" as="geometry">
            <mxPoint x="410" y="750" as="sourcePoint" />
            <mxPoint x="460" y="700" as="targetPoint" />
          </mxGeometry>
        </mxCell>
        <mxCell id="3ra7hq1qONQhSIbURNaE-60" value="响应下单结果" style="text;html=1;align=center;verticalAlign=middle;resizable=0;points=[];autosize=1;strokeColor=none;" vertex="1" parent="1">
          <mxGeometry x="225" y="690" width="90" height="20" as="geometry" />
        </mxCell>
        <mxCell id="3ra7hq1qONQhSIbURNaE-65" value="" style="edgeStyle=orthogonalEdgeStyle;rounded=0;orthogonalLoop=1;jettySize=auto;html=1;" edge="1" parent="1" target="3ra7hq1qONQhSIbURNaE-63">
          <mxGeometry relative="1" as="geometry">
            <mxPoint x="186" y="770" as="sourcePoint" />
            <Array as="points">
              <mxPoint x="186" y="770" />
            </Array>
          </mxGeometry>
        </mxCell>
        <mxCell id="3ra7hq1qONQhSIbURNaE-67" value="" style="edgeStyle=orthogonalEdgeStyle;rounded=0;orthogonalLoop=1;jettySize=auto;html=1;" edge="1" parent="1" source="3ra7hq1qONQhSIbURNaE-63" target="3ra7hq1qONQhSIbURNaE-48">
          <mxGeometry relative="1" as="geometry">
            <mxPoint x="455" y="800" as="targetPoint" />
            <Array as="points">
              <mxPoint x="280" y="800" />
              <mxPoint x="280" y="800" />
            </Array>
          </mxGeometry>
        </mxCell>
        <mxCell id="3ra7hq1qONQhSIbURNaE-69" value="查询订单信息（包括发货状态）" style="text;html=1;align=center;verticalAlign=middle;resizable=0;points=[];autosize=1;strokeColor=none;" vertex="1" parent="1">
          <mxGeometry x="260" y="750" width="180" height="20" as="geometry" />
        </mxCell>
        <mxCell id="3ra7hq1qONQhSIbURNaE-70" value="返回订单信息" style="text;html=1;align=center;verticalAlign=middle;resizable=0;points=[];autosize=1;strokeColor=none;" vertex="1" parent="1">
          <mxGeometry x="315" y="780" width="90" height="20" as="geometry" />
        </mxCell>
      </root>
    </mxGraphModel>
  </diagram>
</mxfile>
